<svg width="3840" height="2160" viewBox="0 0 3840 2160" fill="none" xmlns="http://www.w3.org/2000/svg">
<g clip-path="url(#clip0_1549_2)">
<rect width="3840" height="2160" fill="#333333"/>
<path d="M328.019 1163.2C298.455 1362.97 1.59012 1608.11 1.59012 1608.11L-62 1729.45V-3H1298.83C1298.83 -3 1174.19 274.742 980.878 327.311C868.092 357.983 778.729 279.723 675.645 327.311C530.483 394.325 676.547 557.597 565.422 657.623C471.313 742.333 315.67 690.53 238.993 785.703C137.237 912.005 350.065 1014.24 328.019 1163.2Z" fill="url(#paint0_linear_1549_2)"/>
<path d="M3393.06 1530.59C3108.61 1568.9 3003.04 2029.43 3003.04 2029.43V2204.69H4313V1331.73C4313 1331.73 4182.13 1210.39 4067.12 1200.28C3838.72 1180.2 4000.98 1561.34 3778.84 1608.11C3628.63 1639.74 3546.27 1509.95 3393.06 1530.59Z" fill="url(#paint1_linear_1549_2)"/>
</g>
<defs>
<linearGradient id="paint0_linear_1549_2" x1="3757.65" y1="283.494" x2="1281.63" y2="3471.7" gradientUnits="userSpaceOnUse">
<stop stop-color="#FF7F2A"/>
<stop offset="1" stop-color="#AB0404"/>
</linearGradient>
<linearGradient id="paint1_linear_1549_2" x1="3757.65" y1="283.494" x2="1281.63" y2="3471.7" gradientUnits="userSpaceOnUse">
<stop stop-color="#FF7F2A"/>
<stop offset="1" stop-color="#AB0404"/>
</linearGradient>
<clipPath id="clip0_1549_2">
<rect width="3840" height="2160" fill="white"/>
</clipPath>
</defs>
</svg>
